<?xml version="1.0" encoding="UTF-8"?><svg xmlns="http://www.w3.org/2000/svg" xmlns:xlink="http://www.w3.org/1999/xlink" contentScriptType="text/ecmascript" width="375pt" zoomAndPan="magnify" contentStyleType="text/css" viewBox="0 0 375 374.999991" height="374.999991pt" preserveAspectRatio="xMidYMid meet" version="1.2"><defs><g/><clipPath xml:id="clip1" id="clip1"><path d="M 71.40625 71.40625 L 303.90625 71.40625 L 303.90625 303.90625 L 71.40625 303.90625 Z M 71.40625 71.40625 "/></clipPath><clipPath xml:id="clip2" id="clip2"><path d="M 135 124.257812 L 240 124.257812 L 240 175 L 135 175 Z M 135 124.257812 "/></clipPath><clipPath xml:id="clip3" id="clip3"><path d="M 130.027344 179 L 244.777344 179 L 244.777344 192 L 130.027344 192 Z M 130.027344 179 "/></clipPath><clipPath xml:id="clip4" id="clip4"><path d="M 130.027344 191 L 244.777344 191 L 244.777344 205 L 130.027344 205 Z M 130.027344 191 "/></clipPath><clipPath xml:id="clip5" id="clip5"><path d="M 135 209 L 240 209 L 240 236.757812 L 135 236.757812 Z M 135 209 "/></clipPath></defs><g xml:id="surface1" id="surface1"><g clip-rule="nonzero" clip-path="url(#clip1)"><path style=" stroke:none;fill-rule:nonzero;fill:rgb(4.309082%,3.529358%,3.919983%);fill-opacity:1;" d="M 187.65625 71.40625 C 123.515625 71.40625 71.40625 123.515625 71.40625 187.65625 C 71.40625 251.792969 123.515625 303.90625 187.65625 303.90625 C 251.792969 303.90625 303.90625 251.792969 303.90625 187.65625 C 303.90625 123.515625 251.792969 71.40625 187.65625 71.40625 Z M 187.65625 76.460938 C 249.132812 76.460938 298.851562 126.179688 298.851562 187.65625 C 298.851562 249.132812 249.132812 298.851562 187.65625 298.851562 C 126.179688 298.851562 76.460938 249.132812 76.460938 187.65625 C 76.460938 126.179688 126.179688 76.460938 187.65625 76.460938 Z M 187.65625 76.460938 "/></g><path style=" stroke:none;fill-rule:nonzero;fill:rgb(39.99939%,2.749634%,3.138733%);fill-opacity:1;" d="M 97.363281 182.609375 C 97.042969 182.609375 96.726562 182.640625 96.410156 182.703125 C 96.097656 182.765625 95.792969 182.859375 95.496094 182.980469 C 95.199219 183.105469 94.917969 183.253906 94.652344 183.433594 C 94.386719 183.609375 94.140625 183.8125 93.914062 184.039062 C 93.6875 184.265625 93.488281 184.511719 93.308594 184.777344 C 93.128906 185.042969 92.980469 185.324219 92.859375 185.621094 C 92.734375 185.914062 92.644531 186.21875 92.582031 186.535156 C 92.519531 186.847656 92.488281 187.164062 92.488281 187.484375 C 92.488281 187.804688 92.519531 188.121094 92.582031 188.4375 C 92.644531 188.75 92.734375 189.054688 92.859375 189.351562 C 92.980469 189.644531 93.128906 189.925781 93.308594 190.195312 C 93.488281 190.460938 93.6875 190.707031 93.914062 190.933594 C 94.140625 191.160156 94.386719 191.359375 94.652344 191.539062 C 94.917969 191.714844 95.199219 191.867188 95.496094 191.988281 C 95.792969 192.113281 96.097656 192.203125 96.410156 192.265625 C 96.726562 192.328125 97.042969 192.359375 97.363281 192.359375 C 97.683594 192.359375 98 192.328125 98.3125 192.265625 C 98.625 192.203125 98.933594 192.113281 99.226562 191.988281 C 99.523438 191.867188 99.804688 191.714844 100.070312 191.539062 C 100.335938 191.359375 100.582031 191.160156 100.808594 190.933594 C 101.035156 190.707031 101.238281 190.460938 101.414062 190.195312 C 101.59375 189.925781 101.742188 189.644531 101.867188 189.351562 C 101.988281 189.054688 102.082031 188.75 102.144531 188.4375 C 102.207031 188.121094 102.238281 187.804688 102.238281 187.484375 C 102.238281 187.164062 102.207031 186.847656 102.144531 186.535156 C 102.082031 186.21875 101.988281 185.914062 101.867188 185.621094 C 101.742188 185.324219 101.59375 185.042969 101.414062 184.777344 C 101.238281 184.511719 101.035156 184.265625 100.808594 184.039062 C 100.582031 183.8125 100.335938 183.609375 100.070312 183.433594 C 99.804688 183.253906 99.523438 183.105469 99.226562 182.980469 C 98.933594 182.859375 98.625 182.765625 98.3125 182.703125 C 98 182.640625 97.683594 182.609375 97.363281 182.609375 Z M 97.363281 182.609375 "/><path style=" stroke:none;fill-rule:nonzero;fill:rgb(39.99939%,2.749634%,3.138733%);fill-opacity:1;" d="M 277.609375 182.609375 C 277.289062 182.609375 276.972656 182.640625 276.65625 182.703125 C 276.34375 182.765625 276.039062 182.859375 275.742188 182.980469 C 275.445312 183.105469 275.164062 183.253906 274.898438 183.433594 C 274.632812 183.609375 274.386719 183.8125 274.160156 184.039062 C 273.933594 184.265625 273.734375 184.511719 273.554688 184.777344 C 273.378906 185.042969 273.226562 185.324219 273.105469 185.621094 C 272.980469 185.914062 272.890625 186.21875 272.828125 186.535156 C 272.765625 186.847656 272.734375 187.164062 272.734375 187.484375 C 272.734375 187.804688 272.765625 188.121094 272.828125 188.4375 C 272.890625 188.75 272.980469 189.054688 273.105469 189.351562 C 273.226562 189.644531 273.378906 189.925781 273.554688 190.195312 C 273.734375 190.460938 273.933594 190.707031 274.160156 190.933594 C 274.386719 191.160156 274.632812 191.359375 274.898438 191.539062 C 275.164062 191.714844 275.445312 191.867188 275.742188 191.988281 C 276.039062 192.113281 276.34375 192.203125 276.65625 192.265625 C 276.972656 192.328125 277.289062 192.359375 277.609375 192.359375 C 277.929688 192.359375 278.246094 192.328125 278.558594 192.265625 C 278.875 192.203125 279.179688 192.113281 279.472656 191.988281 C 279.769531 191.867188 280.050781 191.714844 280.316406 191.539062 C 280.582031 191.359375 280.828125 191.160156 281.054688 190.933594 C 281.28125 190.707031 281.484375 190.460938 281.660156 190.195312 C 281.839844 189.925781 281.988281 189.644531 282.113281 189.351562 C 282.234375 189.054688 282.328125 188.75 282.390625 188.4375 C 282.453125 188.121094 282.484375 187.804688 282.484375 187.484375 C 282.484375 187.164062 282.453125 186.847656 282.390625 186.535156 C 282.328125 186.21875 282.234375 185.914062 282.113281 185.621094 C 281.988281 185.324219 281.839844 185.042969 281.660156 184.777344 C 281.484375 184.511719 281.28125 184.265625 281.054688 184.039062 C 280.828125 183.8125 280.582031 183.609375 280.316406 183.433594 C 280.050781 183.253906 279.769531 183.105469 279.472656 182.980469 C 279.179688 182.859375 278.875 182.765625 278.558594 182.703125 C 278.246094 182.640625 277.929688 182.609375 277.609375 182.609375 Z M 277.609375 182.609375 "/><g style="fill:rgb(4.309082%,3.529358%,3.919983%);fill-opacity:1;"><g transform="translate(135.656614, 268.607224)"><path style="stroke:none;" d="M 1.171875 0.625 L 8.421875 -12.796875 L 13.796875 -9.890625 C 15.273438 -9.085938 16.21875 -8.160156 16.625 -7.109375 C 17.03125 -6.066406 16.960938 -5.046875 16.421875 -4.046875 C 15.992188 -3.253906 15.414062 -2.738281 14.6875 -2.5 C 13.96875 -2.257812 13.210938 -2.25 12.421875 -2.46875 L 12.34375 -2.328125 C 12.84375 -2.035156 13.242188 -1.632812 13.546875 -1.125 C 13.859375 -0.613281 14.023438 -0.046875 14.046875 0.578125 C 14.066406 1.203125 13.894531 1.847656 13.53125 2.515625 C 13.144531 3.234375 12.625 3.773438 11.96875 4.140625 C 11.3125 4.503906 10.550781 4.660156 9.6875 4.609375 C 8.832031 4.566406 7.910156 4.273438 6.921875 3.734375 Z M 5.265625 -0.15625 L 7.578125 1.09375 C 8.367188 1.519531 9.03125 1.675781 9.5625 1.5625 C 10.09375 1.457031 10.492188 1.15625 10.765625 0.65625 C 11.066406 0.101562 11.113281 -0.457031 10.90625 -1.03125 C 10.695312 -1.601562 10.253906 -2.070312 9.578125 -2.4375 L 7.203125 -3.71875 Z M 8.234375 -5.640625 L 10.328125 -4.5 C 10.910156 -4.1875 11.476562 -4.082031 12.03125 -4.1875 C 12.582031 -4.289062 13 -4.609375 13.28125 -5.140625 C 13.550781 -5.617188 13.59375 -6.097656 13.40625 -6.578125 C 13.21875 -7.054688 12.8125 -7.46875 12.1875 -7.8125 L 10.03125 -8.96875 Z M 8.234375 -5.640625 "/></g></g><g style="fill:rgb(4.309082%,3.529358%,3.919983%);fill-opacity:1;"><g transform="translate(150.0076, 276.249322)"><path style="stroke:none;" d="M 16.96875 -2.515625 C 16.457031 -0.929688 15.71875 0.3125 14.75 1.21875 C 13.789062 2.132812 12.703125 2.71875 11.484375 2.96875 C 10.273438 3.21875 9.023438 3.132812 7.734375 2.71875 C 6.453125 2.300781 5.390625 1.632812 4.546875 0.71875 C 3.710938 -0.195312 3.179688 -1.304688 2.953125 -2.609375 C 2.722656 -3.921875 2.863281 -5.363281 3.375 -6.9375 C 3.894531 -8.519531 4.628906 -9.769531 5.578125 -10.6875 C 6.535156 -11.601562 7.617188 -12.1875 8.828125 -12.4375 C 10.046875 -12.6875 11.296875 -12.601562 12.578125 -12.1875 C 13.867188 -11.769531 14.929688 -11.101562 15.765625 -10.1875 C 16.609375 -9.269531 17.148438 -8.15625 17.390625 -6.84375 C 17.628906 -5.539062 17.488281 -4.097656 16.96875 -2.515625 Z M 13.859375 -3.53125 C 14.359375 -5.0625 14.40625 -6.34375 14 -7.375 C 13.59375 -8.40625 12.828125 -9.101562 11.703125 -9.46875 C 10.597656 -9.820312 9.570312 -9.703125 8.625 -9.109375 C 7.6875 -8.515625 6.96875 -7.453125 6.46875 -5.921875 C 5.96875 -4.390625 5.921875 -3.101562 6.328125 -2.0625 C 6.742188 -1.03125 7.503906 -0.335938 8.609375 0.015625 C 9.734375 0.378906 10.765625 0.265625 11.703125 -0.328125 C 12.640625 -0.929688 13.359375 -2 13.859375 -3.53125 Z M 13.859375 -3.53125 "/></g></g><g style="fill:rgb(4.309082%,3.529358%,3.919983%);fill-opacity:1;"><g transform="translate(168.057598, 281.860683)"><path style="stroke:none;" d="M 16.15625 -5.78125 C 15.957031 -4.125 15.472656 -2.75 14.703125 -1.65625 C 13.941406 -0.570312 12.988281 0.207031 11.84375 0.6875 C 10.695312 1.175781 9.453125 1.335938 8.109375 1.171875 C 6.765625 1.015625 5.59375 0.566406 4.59375 -0.171875 C 3.601562 -0.910156 2.867188 -1.898438 2.390625 -3.140625 C 1.910156 -4.378906 1.769531 -5.820312 1.96875 -7.46875 C 2.164062 -9.113281 2.640625 -10.476562 3.390625 -11.5625 C 4.148438 -12.65625 5.097656 -13.441406 6.234375 -13.921875 C 7.378906 -14.398438 8.625 -14.5625 9.96875 -14.40625 C 11.3125 -14.238281 12.484375 -13.785156 13.484375 -13.046875 C 14.484375 -12.316406 15.226562 -11.332031 15.71875 -10.09375 C 16.207031 -8.863281 16.351562 -7.425781 16.15625 -5.78125 Z M 12.921875 -6.15625 C 13.109375 -7.75 12.898438 -9.007812 12.296875 -9.9375 C 11.703125 -10.875 10.816406 -11.414062 9.640625 -11.5625 C 8.484375 -11.695312 7.5 -11.378906 6.6875 -10.609375 C 5.882812 -9.847656 5.390625 -8.671875 5.203125 -7.078125 C 5.015625 -5.472656 5.21875 -4.203125 5.8125 -3.265625 C 6.414062 -2.328125 7.296875 -1.789062 8.453125 -1.65625 C 9.628906 -1.507812 10.617188 -1.820312 11.421875 -2.59375 C 12.234375 -3.363281 12.734375 -4.550781 12.921875 -6.15625 Z M 12.921875 -6.15625 "/></g></g><g style="fill:rgb(4.309082%,3.529358%,3.919983%);fill-opacity:1;"><g transform="translate(186.741009, 283.755455)"><path style="stroke:none;" d="M 1.328125 -0.078125 L 0.390625 -15.3125 L 6.40625 -15.6875 C 8.132812 -15.789062 9.5 -15.421875 10.5 -14.578125 C 11.507812 -13.742188 12.0625 -12.570312 12.15625 -11.0625 C 12.21875 -10.019531 12.039062 -9.113281 11.625 -8.34375 C 11.21875 -7.570312 10.585938 -6.972656 9.734375 -6.546875 L 13.34375 -0.828125 L 9.796875 -0.609375 L 6.5625 -5.828125 L 4.21875 -5.6875 L 4.546875 -0.28125 Z M 4.046875 -8.28125 L 6.234375 -8.421875 C 8.066406 -8.535156 8.9375 -9.347656 8.84375 -10.859375 C 8.75 -12.421875 7.78125 -13.144531 5.9375 -13.03125 L 3.765625 -12.890625 Z M 4.046875 -8.28125 "/></g></g><g style="fill:rgb(4.309082%,3.529358%,3.919983%);fill-opacity:1;"><g transform="translate(202.839861, 282.64506)"><path style="stroke:none;" d="M 8.671875 -12.765625 C 8.304688 -13.410156 7.804688 -13.863281 7.171875 -14.125 C 6.546875 -14.394531 5.828125 -14.429688 5.015625 -14.234375 C 3.878906 -13.953125 3.0625 -13.304688 2.5625 -12.296875 C 2.0625 -11.285156 2 -10.007812 2.375 -8.46875 C 2.757812 -6.90625 3.398438 -5.785156 4.296875 -5.109375 C 5.203125 -4.429688 6.242188 -4.238281 7.421875 -4.53125 C 8.460938 -4.789062 9.210938 -5.265625 9.671875 -5.953125 C 10.128906 -6.648438 10.253906 -7.457031 10.046875 -8.375 L 6.859375 -7.59375 L 6.296875 -9.953125 L 12.515625 -11.46875 L 12.96875 -9.609375 C 13.28125 -8.304688 13.273438 -7.117188 12.953125 -6.046875 C 12.640625 -4.972656 12.0625 -4.066406 11.21875 -3.328125 C 10.375 -2.585938 9.328125 -2.066406 8.078125 -1.765625 C 6.691406 -1.421875 5.394531 -1.425781 4.1875 -1.78125 C 2.988281 -2.144531 1.957031 -2.820312 1.09375 -3.8125 C 0.226562 -4.800781 -0.394531 -6.082031 -0.78125 -7.65625 C -1.175781 -9.25 -1.203125 -10.691406 -0.859375 -11.984375 C -0.523438 -13.285156 0.0859375 -14.363281 0.984375 -15.21875 C 1.878906 -16.082031 2.976562 -16.675781 4.28125 -17 C 5.40625 -17.269531 6.472656 -17.300781 7.484375 -17.09375 C 8.492188 -16.894531 9.378906 -16.488281 10.140625 -15.875 C 10.910156 -15.257812 11.484375 -14.484375 11.859375 -13.546875 Z M 8.671875 -12.765625 "/></g></g><g style="fill:rgb(4.309082%,3.529358%,3.919983%);fill-opacity:1;"><g transform="translate(220.178622, 277.912343)"><path style="stroke:none;" d="M -1.328125 -15.875 L 4.25 -1.671875 L 1.234375 -0.484375 L -4.34375 -14.6875 Z M -1.328125 -15.875 "/></g></g><g style="fill:rgb(4.309082%,3.529358%,3.919983%);fill-opacity:1;"><g transform="translate(227.513147, 275.165687)"><path style="stroke:none;" d="M 1.171875 -0.625 L -6.09375 -14.046875 L -0.796875 -16.921875 C 0.722656 -17.742188 2.117188 -17.988281 3.390625 -17.65625 C 4.660156 -17.320312 5.660156 -16.488281 6.390625 -15.15625 C 6.878906 -14.238281 7.097656 -13.34375 7.046875 -12.46875 C 6.992188 -11.59375 6.671875 -10.78125 6.078125 -10.03125 L 11.765625 -6.359375 L 8.625 -4.671875 L 3.5 -8.046875 L 1.4375 -6.9375 L 4.015625 -2.171875 Z M 0.203125 -9.21875 L 2.125 -10.265625 C 3.738281 -11.128906 4.1875 -12.226562 3.46875 -13.5625 C 2.71875 -14.945312 1.53125 -15.203125 -0.09375 -14.328125 L -2 -13.296875 Z M 0.203125 -9.21875 "/></g></g><g style="fill:rgb(4.309082%,3.529358%,3.919983%);fill-opacity:1;"><g transform="translate(111.820191, 155.040196)"><path style="stroke:none;" d="M 0.625 -1.171875 L -12.875 -8.296875 L -10.03125 -13.703125 C -9.238281 -15.191406 -8.320312 -16.140625 -7.28125 -16.546875 C -6.238281 -16.960938 -5.210938 -16.90625 -4.203125 -16.375 C -3.410156 -15.957031 -2.890625 -15.382812 -2.640625 -14.65625 C -2.390625 -13.9375 -2.375 -13.179688 -2.59375 -12.390625 L -2.453125 -12.3125 C -2.171875 -12.820312 -1.773438 -13.234375 -1.265625 -13.546875 C -0.753906 -13.859375 -0.1875 -14.023438 0.4375 -14.046875 C 1.0625 -14.078125 1.707031 -13.914062 2.375 -13.5625 C 3.09375 -13.1875 3.640625 -12.671875 4.015625 -12.015625 C 4.390625 -11.367188 4.554688 -10.613281 4.515625 -9.75 C 4.472656 -8.882812 4.191406 -7.953125 3.671875 -6.953125 Z M -0.203125 -5.265625 L 1.03125 -7.59375 C 1.445312 -8.394531 1.59375 -9.054688 1.46875 -9.578125 C 1.351562 -10.109375 1.046875 -10.507812 0.546875 -10.78125 C -0.00390625 -11.070312 -0.566406 -11.109375 -1.140625 -10.890625 C -1.710938 -10.679688 -2.175781 -10.234375 -2.53125 -9.546875 L -3.796875 -7.15625 Z M -5.71875 -8.171875 L -4.59375 -10.296875 C -4.289062 -10.867188 -4.191406 -11.429688 -4.296875 -11.984375 C -4.410156 -12.535156 -4.734375 -12.953125 -5.265625 -13.234375 C -5.753906 -13.492188 -6.234375 -13.523438 -6.703125 -13.328125 C -7.179688 -13.140625 -7.585938 -12.734375 -7.921875 -12.109375 L -9.0625 -9.9375 Z M -5.71875 -8.171875 "/></g></g><g style="fill:rgb(4.309082%,3.529358%,3.919983%);fill-opacity:1;"><g transform="translate(118.154298, 142.865048)"><path style="stroke:none;" d="M -5.453125 -17.875 L -3.484375 -20.40625 L 4.5 -14.21875 C 5.394531 -13.519531 5.992188 -12.707031 6.296875 -11.78125 C 6.609375 -10.851562 6.640625 -9.882812 6.390625 -8.875 C 6.140625 -7.875 5.632812 -6.882812 4.875 -5.90625 C 4.113281 -4.9375 3.273438 -4.203125 2.359375 -3.703125 C 1.453125 -3.203125 0.515625 -2.988281 -0.453125 -3.0625 C -1.429688 -3.132812 -2.367188 -3.519531 -3.265625 -4.21875 L -11.25 -10.40625 L -9.265625 -12.96875 L -1.375 -6.84375 C -0.726562 -6.34375 -0.0390625 -6.179688 0.6875 -6.359375 C 1.414062 -6.535156 2.054688 -6.972656 2.609375 -7.671875 C 3.160156 -8.390625 3.429688 -9.125 3.421875 -9.875 C 3.410156 -10.625 3.082031 -11.25 2.4375 -11.75 Z M -5.453125 -17.875 "/></g></g><g style="fill:rgb(4.309082%,3.529358%,3.919983%);fill-opacity:1;"><g transform="translate(127.492484, 130.927686)"><path style="stroke:none;" d="M 0.984375 -0.890625 L -9.265625 -12.203125 L -4.796875 -16.25 C -3.515625 -17.414062 -2.210938 -17.984375 -0.890625 -17.953125 C 0.421875 -17.929688 1.585938 -17.359375 2.609375 -16.234375 C 3.304688 -15.460938 3.734375 -14.644531 3.890625 -13.78125 C 4.046875 -12.914062 3.921875 -12.054688 3.515625 -11.203125 L 9.90625 -8.984375 L 7.265625 -6.59375 L 1.484375 -8.65625 L -0.265625 -7.078125 L 3.375 -3.0625 Z M -2 -9 L -0.375 -10.46875 C 0.988281 -11.695312 1.160156 -12.875 0.140625 -14 C -0.910156 -15.164062 -2.125 -15.128906 -3.5 -13.890625 L -5.109375 -12.4375 Z M -2 -9 "/></g></g><g style="fill:rgb(4.309082%,3.529358%,3.919983%);fill-opacity:1;"><g transform="translate(137.504458, 121.706481)"><path style="stroke:none;" d="M 4.25 -14.84375 C 3.707031 -15.332031 3.09375 -15.601562 2.40625 -15.65625 C 1.71875 -15.71875 1.019531 -15.523438 0.3125 -15.078125 C -0.675781 -14.460938 -1.25 -13.597656 -1.40625 -12.484375 C -1.5625 -11.367188 -1.21875 -10.140625 -0.375 -8.796875 C 0.46875 -7.429688 1.421875 -6.566406 2.484375 -6.203125 C 3.554688 -5.835938 4.609375 -5.972656 5.640625 -6.609375 C 6.546875 -7.179688 7.109375 -7.867188 7.328125 -8.671875 C 7.546875 -9.472656 7.414062 -10.285156 6.9375 -11.109375 L 4.15625 -9.359375 L 2.875 -11.421875 L 8.296875 -14.8125 L 9.3125 -13.171875 C 10.019531 -12.046875 10.382812 -10.921875 10.40625 -9.796875 C 10.4375 -8.671875 10.171875 -7.628906 9.609375 -6.671875 C 9.046875 -5.710938 8.21875 -4.890625 7.125 -4.203125 C 5.914062 -3.441406 4.679688 -3.039062 3.421875 -3 C 2.171875 -2.96875 0.984375 -3.289062 -0.140625 -3.96875 C -1.273438 -4.644531 -2.269531 -5.664062 -3.125 -7.03125 C -4 -8.425781 -4.476562 -9.789062 -4.5625 -11.125 C -4.65625 -12.457031 -4.40625 -13.671875 -3.8125 -14.765625 C -3.226562 -15.867188 -2.367188 -16.773438 -1.234375 -17.484375 C -0.242188 -18.097656 0.753906 -18.460938 1.765625 -18.578125 C 2.785156 -18.703125 3.753906 -18.59375 4.671875 -18.25 C 5.597656 -17.90625 6.382812 -17.347656 7.03125 -16.578125 Z M 4.25 -14.84375 "/></g></g><g style="fill:rgb(4.309082%,3.529358%,3.919983%);fill-opacity:1;"><g transform="translate(150.987265, 113.436843)"><path style="stroke:none;" d="M 1.234375 -0.5 L -4.5 -14.65625 L 5.046875 -18.515625 L 6.046875 -16.046875 L -0.5 -13.40625 L 0.875 -10.03125 L 6.921875 -12.46875 L 7.90625 -10 L 1.859375 -7.5625 L 3.234375 -4.1875 L 9.796875 -6.84375 L 10.796875 -4.375 Z M 1.234375 -0.5 "/></g></g><g style="fill:rgb(4.309082%,3.529358%,3.919983%);fill-opacity:1;"><g transform="translate(162.83661, 108.595689)"><path style="stroke:none;" d="M 1.296875 -0.296875 L -2.09375 -15.1875 L 3.78125 -16.53125 C 5.46875 -16.90625 6.878906 -16.757812 8.015625 -16.09375 C 9.160156 -15.425781 9.898438 -14.351562 10.234375 -12.875 C 10.460938 -11.851562 10.429688 -10.929688 10.140625 -10.109375 C 9.859375 -9.285156 9.332031 -8.597656 8.5625 -8.046875 L 13.046875 -2.96875 L 9.5625 -2.171875 L 5.53125 -6.8125 L 3.25 -6.296875 L 4.453125 -1.015625 Z M 2.671875 -8.828125 L 4.796875 -9.3125 C 6.585938 -9.71875 7.316406 -10.660156 6.984375 -12.140625 C 6.628906 -13.671875 5.550781 -14.234375 3.75 -13.828125 L 1.640625 -13.34375 Z M 2.671875 -8.828125 "/></g></g><g style="fill:rgb(4.309082%,3.529358%,3.919983%);fill-opacity:1;"><g transform="translate(176.252881, 105.611847)"><path style="stroke:none;" d="M 1.328125 -0.09375 L 0.28125 -15.328125 L 3.5 -15.546875 L 4.359375 -2.96875 L 10.890625 -3.421875 L 11.078125 -0.765625 Z M 1.328125 -0.09375 "/></g></g><g style="fill:rgb(4.309082%,3.529358%,3.919983%);fill-opacity:1;"><g transform="translate(188.409723, 104.962566)"><path style="stroke:none;" d="M 5.21875 -15.046875 L 4.5625 0.203125 L 1.328125 0.0625 L 1.984375 -15.1875 Z M 5.21875 -15.046875 "/></g></g><g style="fill:rgb(4.309082%,3.529358%,3.919983%);fill-opacity:1;"><g transform="translate(194.460186, 104.919006)"><path style="stroke:none;" d="M 16.53125 -12.59375 L 13.890625 2.4375 L 11.140625 1.953125 L 6.265625 -8.65625 L 6.171875 -8.671875 L 4.5 0.796875 L 1.3125 0.234375 L 3.953125 -14.796875 L 6.734375 -14.3125 L 11.578125 -3.734375 L 11.703125 -3.703125 L 13.359375 -13.140625 Z M 16.53125 -12.59375 "/></g></g><g style="fill:rgb(4.309082%,3.529358%,3.919983%);fill-opacity:1;"><g transform="translate(209.512507, 107.666352)"><path style="stroke:none;" d="M 1.25 0.453125 L 6.40625 -13.921875 L 16.09375 -10.453125 L 15.1875 -7.953125 L 8.546875 -10.328125 L 7.328125 -6.890625 L 13.46875 -4.6875 L 12.5625 -2.1875 L 6.421875 -4.390625 L 5.1875 -0.953125 L 11.859375 1.4375 L 10.96875 3.9375 Z M 1.25 0.453125 "/></g></g><g style="fill:rgb(4.309082%,3.529358%,3.919983%);fill-opacity:1;"><g transform="translate(226.465517, 114.231933)"><path style="stroke:none;" d="M 17.8125 -0.140625 L 15.078125 -1.9375 C 15.441406 -2.71875 15.507812 -3.46875 15.28125 -4.1875 C 15.050781 -4.914062 14.566406 -5.523438 13.828125 -6.015625 C 12.835938 -6.660156 11.804688 -6.816406 10.734375 -6.484375 C 9.660156 -6.148438 8.6875 -5.320312 7.8125 -4 C 6.914062 -2.632812 6.535156 -1.398438 6.671875 -0.296875 C 6.804688 0.804688 7.351562 1.675781 8.3125 2.3125 C 9.039062 2.789062 9.78125 3.003906 10.53125 2.953125 C 11.28125 2.898438 11.9375 2.578125 12.5 1.984375 L 15.21875 3.796875 C 14.613281 4.515625 13.851562 5.066406 12.9375 5.453125 C 12.019531 5.835938 11.023438 5.984375 9.953125 5.890625 C 8.890625 5.796875 7.8125 5.390625 6.71875 4.671875 C 5.570312 3.921875 4.722656 2.992188 4.171875 1.890625 C 3.617188 0.785156 3.40625 -0.421875 3.53125 -1.734375 C 3.65625 -3.054688 4.175781 -4.410156 5.09375 -5.796875 C 6.007812 -7.191406 7.046875 -8.203125 8.203125 -8.828125 C 9.367188 -9.460938 10.566406 -9.738281 11.796875 -9.65625 C 13.035156 -9.582031 14.21875 -9.175781 15.34375 -8.4375 C 16.320312 -7.789062 17.085938 -7.019531 17.640625 -6.125 C 18.191406 -5.238281 18.488281 -4.285156 18.53125 -3.265625 C 18.582031 -2.242188 18.34375 -1.203125 17.8125 -0.140625 Z M 17.8125 -0.140625 "/></g></g><g style="fill:rgb(4.309082%,3.529358%,3.919983%);fill-opacity:1;"><g transform="translate(239.46532, 122.769301)"><path style="stroke:none;" d="M 2.84375 2.75 L 0.359375 0.34375 L 14.765625 -6.9375 L 17.75 -4.03125 L 10.90625 10.59375 L 8.421875 8.171875 L 10.03125 4.890625 L 6.078125 1.046875 Z M 8.40625 -0.203125 L 11.203125 2.515625 L 13.875 -2.953125 L 13.796875 -3.015625 Z M 8.40625 -0.203125 "/></g></g><g style="fill:rgb(4.309082%,3.529358%,3.919983%);fill-opacity:1;"><g transform="translate(250.551663, 133.713254)"><path style="stroke:none;" d="M 0.78125 1.078125 L 13.09375 -7.9375 L 19.0625 0.21875 L 16.921875 1.78125 L 12.875 -3.765625 L 9.9375 -1.609375 L 13.59375 3.390625 L 11.453125 4.953125 L 7.796875 -0.046875 L 2.703125 3.6875 Z M 0.78125 1.078125 "/></g></g><g style="fill:rgb(4.309082%,3.529358%,3.919983%);fill-opacity:1;"><g transform="translate(257.819409, 143.604271)"><path style="stroke:none;" d="M 0.609375 1.171875 L 14.15625 -5.875 L 18.90625 3.265625 L 16.546875 4.5 L 13.296875 -1.765625 L 10.0625 -0.09375 L 13.078125 5.703125 L 10.71875 6.9375 L 7.703125 1.140625 L 4.46875 2.828125 L 7.734375 9.125 L 5.375 10.34375 Z M 17.3125 -3.421875 L 21.046875 -3.5625 L 22.40625 -0.953125 L 18.359375 -1.421875 Z M 17.3125 -3.421875 "/></g></g><g clip-rule="nonzero" clip-path="url(#clip2)"><path style=" stroke:none;fill-rule:nonzero;fill:rgb(4.309082%,3.529358%,3.919983%);fill-opacity:1;" d="M 237.289062 174.257812 L 137.515625 174.257812 C 137.183594 174.257812 136.863281 174.195312 136.558594 174.066406 C 136.253906 173.941406 135.984375 173.761719 135.75 173.527344 C 135.515625 173.292969 135.335938 173.019531 135.210938 172.714844 C 135.082031 172.410156 135.019531 172.089844 135.019531 171.757812 C 135.019531 170.203125 135.09375 168.648438 135.246094 167.101562 C 135.398438 165.554688 135.628906 164.015625 135.929688 162.492188 C 136.234375 160.964844 136.609375 159.457031 137.058594 157.96875 C 137.511719 156.480469 138.03125 155.019531 138.628906 153.582031 C 139.222656 152.144531 139.882812 150.738281 140.617188 149.367188 C 141.347656 147.996094 142.144531 146.660156 143.007812 145.367188 C 143.867188 144.074219 144.792969 142.828125 145.777344 141.625 C 146.761719 140.421875 147.804688 139.269531 148.902344 138.171875 C 150 137.070312 151.148438 136.027344 152.347656 135.039062 C 153.546875 134.054688 154.792969 133.128906 156.082031 132.261719 C 157.371094 131.398438 158.703125 130.601562 160.070312 129.867188 C 161.441406 129.132812 162.84375 128.46875 164.277344 127.875 C 165.710938 127.277344 167.167969 126.753906 168.65625 126.304688 C 170.140625 125.851562 171.644531 125.472656 173.167969 125.171875 C 174.6875 124.867188 176.222656 124.640625 177.765625 124.488281 C 179.3125 124.335938 180.859375 124.257812 182.414062 124.257812 L 192.390625 124.257812 C 193.941406 124.257812 195.492188 124.335938 197.035156 124.488281 C 198.578125 124.640625 200.113281 124.867188 201.636719 125.171875 C 203.15625 125.472656 204.660156 125.851562 206.148438 126.304688 C 207.632812 126.753906 209.09375 127.277344 210.527344 127.875 C 211.960938 128.46875 213.363281 129.132812 214.730469 129.867188 C 216.101562 130.601562 217.429688 131.398438 218.71875 132.261719 C 220.011719 133.128906 221.253906 134.054688 222.457031 135.039062 C 223.65625 136.027344 224.804688 137.070312 225.902344 138.171875 C 227 139.269531 228.039062 140.421875 229.023438 141.625 C 230.011719 142.828125 230.933594 144.074219 231.796875 145.367188 C 232.65625 146.660156 233.453125 147.996094 234.1875 149.367188 C 234.917969 150.738281 235.582031 152.144531 236.175781 153.582031 C 236.769531 155.019531 237.292969 156.480469 237.742188 157.96875 C 238.191406 159.457031 238.570312 160.964844 238.871094 162.492188 C 239.175781 164.015625 239.402344 165.554688 239.554688 167.101562 C 239.707031 168.648438 239.78125 170.203125 239.78125 171.757812 C 239.78125 172.089844 239.71875 172.410156 239.59375 172.714844 C 239.464844 173.019531 239.285156 173.292969 239.050781 173.527344 C 238.816406 173.761719 238.546875 173.941406 238.242188 174.066406 C 237.9375 174.195312 237.621094 174.257812 237.289062 174.257812 Z M 140.007812 169.257812 L 234.792969 169.257812 C 234.714844 167.917969 234.574219 166.585938 234.371094 165.261719 C 234.164062 163.9375 233.898438 162.621094 233.570312 161.324219 C 233.242188 160.023438 232.851562 158.742188 232.402344 157.476562 C 231.953125 156.214844 231.445312 154.976562 230.878906 153.761719 C 230.3125 152.546875 229.6875 151.359375 229.007812 150.203125 C 228.332031 149.046875 227.597656 147.925781 226.816406 146.839844 C 226.03125 145.753906 225.195312 144.707031 224.3125 143.699219 C 223.429688 142.691406 222.5 141.730469 221.527344 140.808594 C 220.550781 139.890625 219.535156 139.019531 218.480469 138.195312 C 217.421875 137.375 216.328125 136.601562 215.199219 135.882812 C 214.070312 135.164062 212.910156 134.5 211.714844 133.890625 C 210.523438 133.28125 209.304688 132.730469 208.0625 132.238281 C 206.816406 131.746094 205.550781 131.3125 204.265625 130.9375 C 202.980469 130.5625 201.679688 130.253906 200.367188 130.003906 C 199.050781 129.753906 197.726562 129.566406 196.394531 129.441406 C 195.0625 129.316406 193.726562 129.253906 192.390625 129.257812 L 182.414062 129.257812 C 181.074219 129.253906 179.738281 129.316406 178.40625 129.441406 C 177.074219 129.566406 175.75 129.753906 174.4375 130.003906 C 173.121094 130.253906 171.820312 130.5625 170.535156 130.9375 C 169.25 131.3125 167.984375 131.746094 166.742188 132.238281 C 165.496094 132.730469 164.277344 133.28125 163.085938 133.890625 C 161.894531 134.5 160.734375 135.164062 159.601562 135.882812 C 158.472656 136.601562 157.378906 137.375 156.324219 138.195312 C 155.265625 139.019531 154.25 139.890625 153.277344 140.808594 C 152.300781 141.730469 151.375 142.691406 150.488281 143.699219 C 149.605469 144.707031 148.773438 145.753906 147.988281 146.839844 C 147.203125 147.925781 146.472656 149.046875 145.792969 150.203125 C 145.113281 151.359375 144.492188 152.546875 143.925781 153.761719 C 143.359375 154.976562 142.851562 156.214844 142.398438 157.476562 C 141.949219 158.742188 141.5625 160.023438 141.234375 161.324219 C 140.90625 162.621094 140.636719 163.9375 140.433594 165.261719 C 140.230469 166.585938 140.085938 167.917969 140.007812 169.257812 Z M 140.007812 169.257812 "/></g><path style=" stroke:none;fill-rule:nonzero;fill:rgb(4.309082%,3.529358%,3.919983%);fill-opacity:1;" d="M 151.40625 158.183594 C 151.011719 158.1875 150.636719 158.097656 150.285156 157.90625 C 149.992188 157.757812 149.738281 157.558594 149.523438 157.308594 C 149.308594 157.054688 149.148438 156.773438 149.046875 156.460938 C 148.945312 156.144531 148.90625 155.824219 148.929688 155.496094 C 148.953125 155.164062 149.039062 154.851562 149.1875 154.558594 C 149.773438 153.371094 150.4375 152.226562 151.183594 151.132812 C 153.132812 148.171875 155.453125 145.539062 158.148438 143.234375 C 160.839844 140.933594 163.796875 139.046875 167.023438 137.582031 C 167.320312 137.46875 167.625 137.417969 167.945312 137.421875 C 168.261719 137.425781 168.566406 137.488281 168.859375 137.613281 C 169.152344 137.734375 169.414062 137.90625 169.640625 138.125 C 169.871094 138.347656 170.046875 138.605469 170.179688 138.894531 C 170.308594 139.183594 170.382812 139.488281 170.394531 139.804688 C 170.410156 140.125 170.367188 140.433594 170.261719 140.734375 C 170.160156 141.035156 170.003906 141.304688 169.796875 141.546875 C 169.59375 141.789062 169.347656 141.984375 169.066406 142.132812 C 166.269531 143.40625 163.707031 145.042969 161.375 147.042969 C 159.039062 149.046875 157.03125 151.332031 155.347656 153.90625 C 154.707031 154.816406 154.136719 155.769531 153.628906 156.757812 C 153.421875 157.1875 153.121094 157.53125 152.722656 157.789062 C 152.320312 158.046875 151.882812 158.175781 151.40625 158.183594 Z M 151.40625 158.183594 "/><g clip-rule="nonzero" clip-path="url(#clip3)"><path style=" stroke:none;fill-rule:nonzero;fill:rgb(4.309082%,3.529358%,3.919983%);fill-opacity:1;" d="M 242.277344 191.757812 C 241.820312 191.757812 241.398438 191.640625 241.003906 191.40625 L 229.804688 184.683594 L 218.605469 191.40625 C 218.21875 191.632812 217.804688 191.742188 217.359375 191.742188 C 216.914062 191.742188 216.496094 191.632812 216.109375 191.40625 L 202.367188 184.558594 L 188.523438 191.484375 C 188.171875 191.660156 187.796875 191.75 187.402344 191.75 C 187.007812 191.75 186.632812 191.660156 186.277344 191.484375 L 172.433594 184.558594 L 158.589844 191.484375 C 158.207031 191.707031 157.789062 191.816406 157.34375 191.816406 C 156.898438 191.816406 156.484375 191.707031 156.097656 191.484375 L 144.996094 184.683594 L 133.796875 191.40625 C 133.511719 191.617188 133.195312 191.757812 132.851562 191.832031 C 132.507812 191.90625 132.160156 191.90625 131.816406 191.832031 C 131.46875 191.757812 131.15625 191.621094 130.867188 191.410156 C 130.582031 191.203125 130.351562 190.949219 130.175781 190.640625 C 129.996094 190.335938 129.890625 190.007812 129.851562 189.65625 C 129.8125 189.304688 129.847656 188.960938 129.953125 188.625 C 130.0625 188.285156 130.234375 187.988281 130.46875 187.722656 C 130.703125 187.457031 130.980469 187.253906 131.304688 187.109375 L 143.773438 179.609375 C 144.160156 179.382812 144.578125 179.273438 145.023438 179.273438 C 145.46875 179.273438 145.882812 179.382812 146.269531 179.609375 L 157.46875 186.40625 L 171.210938 179.53125 C 171.566406 179.355469 171.941406 179.265625 172.335938 179.265625 C 172.730469 179.265625 173.105469 179.355469 173.457031 179.53125 L 187.402344 186.457031 L 201.246094 179.53125 C 201.597656 179.355469 201.972656 179.265625 202.367188 179.265625 C 202.761719 179.265625 203.136719 179.355469 203.488281 179.53125 L 217.332031 186.40625 L 228.632812 179.609375 C 229.019531 179.382812 229.433594 179.273438 229.878906 179.273438 C 230.324219 179.273438 230.742188 179.382812 231.128906 179.609375 L 243.597656 187.109375 C 243.835938 187.25 244.042969 187.425781 244.222656 187.632812 C 244.402344 187.84375 244.542969 188.078125 244.644531 188.332031 C 244.746094 188.589844 244.804688 188.855469 244.816406 189.132812 C 244.832031 189.40625 244.800781 189.679688 244.726562 189.945312 C 244.652344 190.207031 244.535156 190.457031 244.378906 190.683594 C 244.21875 190.910156 244.03125 191.105469 243.808594 191.269531 C 243.589844 191.433594 243.347656 191.558594 243.082031 191.640625 C 242.820312 191.722656 242.550781 191.761719 242.277344 191.757812 Z M 242.277344 191.757812 "/></g><g clip-rule="nonzero" clip-path="url(#clip4)"><path style=" stroke:none;fill-rule:nonzero;fill:rgb(4.309082%,3.529358%,3.919983%);fill-opacity:1;" d="M 242.277344 204.257812 C 241.820312 204.257812 241.398438 204.140625 241.003906 203.90625 L 229.804688 197.183594 L 218.605469 203.90625 C 218.21875 204.132812 217.804688 204.242188 217.359375 204.242188 C 216.914062 204.242188 216.496094 204.132812 216.109375 203.90625 L 202.367188 197.058594 L 188.523438 203.984375 C 188.171875 204.160156 187.796875 204.25 187.402344 204.25 C 187.007812 204.25 186.632812 204.160156 186.277344 203.984375 L 172.433594 197.058594 L 158.589844 203.984375 C 158.207031 204.207031 157.789062 204.316406 157.34375 204.316406 C 156.898438 204.316406 156.484375 204.207031 156.097656 203.984375 L 144.996094 197.183594 L 133.796875 203.90625 C 133.511719 204.117188 133.195312 204.257812 132.851562 204.332031 C 132.507812 204.40625 132.160156 204.40625 131.816406 204.332031 C 131.46875 204.257812 131.15625 204.121094 130.867188 203.910156 C 130.582031 203.703125 130.351562 203.449219 130.175781 203.140625 C 129.996094 202.835938 129.890625 202.507812 129.851562 202.15625 C 129.8125 201.804688 129.847656 201.460938 129.953125 201.125 C 130.0625 200.785156 130.234375 200.488281 130.46875 200.222656 C 130.703125 199.957031 130.980469 199.753906 131.304688 199.609375 L 143.773438 192.109375 C 144.160156 191.882812 144.578125 191.773438 145.023438 191.773438 C 145.46875 191.773438 145.882812 191.882812 146.269531 192.109375 L 157.46875 198.90625 L 171.210938 192.03125 C 171.566406 191.855469 171.941406 191.765625 172.335938 191.765625 C 172.730469 191.765625 173.105469 191.855469 173.457031 192.03125 L 187.402344 198.957031 L 201.246094 192.03125 C 201.597656 191.855469 201.972656 191.765625 202.367188 191.765625 C 202.761719 191.765625 203.136719 191.855469 203.488281 192.03125 L 217.332031 198.90625 L 228.632812 192.109375 C 229.019531 191.882812 229.433594 191.773438 229.878906 191.773438 C 230.324219 191.773438 230.742188 191.882812 231.128906 192.109375 L 243.597656 199.609375 C 243.835938 199.75 244.042969 199.925781 244.222656 200.132812 C 244.402344 200.34375 244.542969 200.578125 244.644531 200.832031 C 244.746094 201.089844 244.804688 201.355469 244.816406 201.632812 C 244.832031 201.90625 244.800781 202.179688 244.726562 202.445312 C 244.652344 202.707031 244.535156 202.957031 244.378906 203.183594 C 244.21875 203.410156 244.03125 203.605469 243.808594 203.769531 C 243.589844 203.933594 243.347656 204.058594 243.082031 204.140625 C 242.820312 204.222656 242.550781 204.261719 242.277344 204.257812 Z M 242.277344 204.257812 "/></g><g clip-rule="nonzero" clip-path="url(#clip5)"><path style=" stroke:none;fill-rule:nonzero;fill:rgb(4.309082%,3.529358%,3.919983%);fill-opacity:1;" d="M 227.3125 236.757812 L 147.492188 236.757812 C 146.671875 236.757812 145.863281 236.679688 145.058594 236.519531 C 144.253906 236.359375 143.476562 236.121094 142.71875 235.804688 C 141.960938 235.492188 141.242188 235.105469 140.5625 234.652344 C 139.882812 234.195312 139.25 233.675781 138.671875 233.097656 C 138.09375 232.515625 137.578125 231.886719 137.121094 231.203125 C 136.667969 230.519531 136.28125 229.800781 135.96875 229.042969 C 135.65625 228.28125 135.417969 227.5 135.257812 226.695312 C 135.097656 225.890625 135.019531 225.078125 135.019531 224.257812 L 135.019531 221.757812 C 135.019531 220.9375 135.097656 220.125 135.257812 219.320312 C 135.417969 218.515625 135.65625 217.734375 135.96875 216.972656 C 136.28125 216.214844 136.667969 215.496094 137.121094 214.8125 C 137.578125 214.128906 138.09375 213.5 138.671875 212.917969 C 139.25 212.339844 139.882812 211.820312 140.5625 211.363281 C 141.242188 210.910156 141.960938 210.523438 142.71875 210.210938 C 143.476562 209.894531 144.253906 209.65625 145.058594 209.496094 C 145.863281 209.339844 146.671875 209.257812 147.492188 209.257812 L 227.3125 209.257812 C 228.128906 209.257812 228.941406 209.339844 229.742188 209.496094 C 230.546875 209.65625 231.328125 209.894531 232.082031 210.210938 C 232.839844 210.523438 233.558594 210.910156 234.238281 211.363281 C 234.921875 211.820312 235.550781 212.339844 236.128906 212.917969 C 236.707031 213.5 237.226562 214.128906 237.679688 214.8125 C 238.136719 215.496094 238.519531 216.214844 238.832031 216.972656 C 239.148438 217.734375 239.382812 218.515625 239.542969 219.320312 C 239.703125 220.125 239.78125 220.9375 239.78125 221.757812 L 239.78125 224.257812 C 239.78125 225.078125 239.703125 225.890625 239.542969 226.695312 C 239.382812 227.5 239.148438 228.28125 238.832031 229.042969 C 238.519531 229.800781 238.136719 230.519531 237.679688 231.203125 C 237.226562 231.886719 236.707031 232.515625 236.128906 233.097656 C 235.550781 233.675781 234.921875 234.195312 234.238281 234.652344 C 233.558594 235.105469 232.839844 235.492188 232.082031 235.804688 C 231.328125 236.121094 230.546875 236.359375 229.742188 236.519531 C 228.941406 236.679688 228.128906 236.757812 227.3125 236.757812 Z M 147.492188 214.257812 C 147 214.257812 146.511719 214.304688 146.03125 214.402344 C 145.550781 214.496094 145.082031 214.640625 144.628906 214.828125 C 144.171875 215.015625 143.742188 215.25 143.335938 215.523438 C 142.925781 215.796875 142.546875 216.105469 142.199219 216.453125 C 141.851562 216.804688 141.542969 217.179688 141.269531 217.589844 C 140.996094 218 140.765625 218.433594 140.578125 218.886719 C 140.390625 219.34375 140.246094 219.8125 140.152344 220.292969 C 140.054688 220.777344 140.007812 221.265625 140.007812 221.757812 L 140.007812 224.257812 C 140.007812 224.75 140.054688 225.238281 140.152344 225.722656 C 140.246094 226.203125 140.390625 226.671875 140.578125 227.128906 C 140.765625 227.582031 140.996094 228.015625 141.269531 228.425781 C 141.542969 228.835938 141.851562 229.214844 142.199219 229.5625 C 142.546875 229.910156 142.925781 230.21875 143.335938 230.492188 C 143.742188 230.765625 144.171875 231 144.628906 231.1875 C 145.082031 231.375 145.550781 231.519531 146.03125 231.613281 C 146.511719 231.710938 147 231.757812 147.492188 231.757812 L 227.3125 231.757812 C 227.800781 231.757812 228.289062 231.710938 228.769531 231.613281 C 229.253906 231.519531 229.71875 231.375 230.175781 231.1875 C 230.628906 231 231.058594 230.765625 231.46875 230.492188 C 231.875 230.21875 232.253906 229.910156 232.601562 229.5625 C 232.949219 229.214844 233.261719 228.835938 233.53125 228.425781 C 233.804688 228.015625 234.035156 227.582031 234.222656 227.128906 C 234.414062 226.671875 234.554688 226.203125 234.648438 225.722656 C 234.746094 225.238281 234.792969 224.75 234.792969 224.257812 L 234.792969 221.757812 C 234.792969 221.265625 234.746094 220.777344 234.648438 220.292969 C 234.554688 219.8125 234.414062 219.34375 234.222656 218.886719 C 234.035156 218.433594 233.804688 218 233.53125 217.589844 C 233.261719 217.179688 232.949219 216.804688 232.601562 216.453125 C 232.253906 216.105469 231.875 215.796875 231.46875 215.523438 C 231.058594 215.25 230.628906 215.015625 230.175781 214.828125 C 229.71875 214.640625 229.253906 214.496094 228.769531 214.402344 C 228.289062 214.304688 227.800781 214.257812 227.3125 214.257812 Z M 147.492188 214.257812 "/></g></g></svg>